<mxfile host="65bd71144e">
    <diagram id="SItZtoqmiIfeZ8X2j1Y3" name="第 1 页">
        <mxGraphModel dx="414" dy="400" grid="1" gridSize="10" guides="1" tooltips="1" connect="1" arrows="1" fold="1" page="1" pageScale="1" pageWidth="827" pageHeight="1169" background="#ffffff" math="0" shadow="0">
            <root>
                <mxCell id="0"/>
                <mxCell id="1" parent="0"/>
                <mxCell id="2" value="&lt;p style=&quot;line-height: 100%; font-size: 14px;&quot;&gt;&lt;font style=&quot;font-size: 14px;&quot; color=&quot;#000000&quot;&gt;TextView&lt;/font&gt;&lt;/p&gt;" style="rounded=0;whiteSpace=wrap;html=1;sketch=1;hachureGap=4;jiggle=2;curveFitting=1;fontFamily=Comic Sans MS;fontSize=20;fillColor=#dae8fc;strokeColor=#6c8ebf;shadow=0;align=center;" vertex="1" parent="1">
                    <mxGeometry x="80" y="170" width="70" height="20" as="geometry"/>
                </mxCell>
                <mxCell id="3" value="&lt;p style=&quot;line-height: 100%; font-size: 14px;&quot;&gt;&lt;font style=&quot;font-size: 14px;&quot; color=&quot;#000000&quot;&gt;TextView&lt;/font&gt;&lt;/p&gt;" style="rounded=0;whiteSpace=wrap;html=1;sketch=1;hachureGap=4;jiggle=2;curveFitting=1;fontFamily=Comic Sans MS;fontSize=20;fillColor=#dae8fc;strokeColor=#6c8ebf;shadow=0;align=center;" vertex="1" parent="1">
                    <mxGeometry x="80" y="190" width="70" height="20" as="geometry"/>
                </mxCell>
                <mxCell id="4" value="&lt;font color=&quot;#000000&quot;&gt;EditTextView&lt;/font&gt;" style="rounded=1;whiteSpace=wrap;html=1;shadow=0;hachureGap=4;strokeColor=#C73500;fontFamily=Comic Sans MS;fontSize=14;fillColor=#fa6800;glass=0;sketch=1;curveFitting=1;jiggle=2;strokeWidth=1;perimeterSpacing=0;fontColor=#000000;" vertex="1" parent="1">
                    <mxGeometry x="159" y="170" width="130" height="20" as="geometry"/>
                </mxCell>
                <mxCell id="5" value="&lt;font color=&quot;#000000&quot;&gt;EditTextView&lt;/font&gt;" style="rounded=1;whiteSpace=wrap;html=1;shadow=0;sketch=1;hachureGap=4;jiggle=2;curveFitting=1;strokeColor=#C73500;fontFamily=Comic Sans MS;fontSize=14;fillColor=#fa6800;fontColor=#000000;" vertex="1" parent="1">
                    <mxGeometry x="159" y="190" width="130" height="20" as="geometry"/>
                </mxCell>
                <mxCell id="6" value="&lt;font color=&quot;#000000&quot;&gt;CheckBox&lt;/font&gt;" style="ellipse;whiteSpace=wrap;html=1;shadow=0;sketch=1;hachureGap=4;jiggle=2;curveFitting=1;strokeColor=#B09500;fontFamily=Comic Sans MS;fontSize=14;fontColor=#000000;fillColor=#e3c800;align=left;" vertex="1" parent="1">
                    <mxGeometry x="80" y="215" width="30" height="30" as="geometry"/>
                </mxCell>
                <mxCell id="7" value="&lt;font color=&quot;#000000&quot;&gt;CheckBox&lt;/font&gt;" style="ellipse;whiteSpace=wrap;html=1;shadow=0;sketch=1;hachureGap=4;jiggle=2;curveFitting=1;strokeColor=#B09500;fontFamily=Comic Sans MS;fontSize=14;fontColor=#000000;fillColor=#e3c800;align=left;" vertex="1" parent="1">
                    <mxGeometry x="150" y="214" width="30" height="30" as="geometry"/>
                </mxCell>
                <mxCell id="8" value="&lt;p style=&quot;line-height: 100%; font-size: 14px;&quot;&gt;&lt;font style=&quot;font-size: 14px;&quot; color=&quot;#000000&quot;&gt;TextView&lt;/font&gt;&lt;/p&gt;" style="rounded=0;whiteSpace=wrap;html=1;sketch=1;hachureGap=4;jiggle=2;curveFitting=1;fontFamily=Comic Sans MS;fontSize=20;fillColor=#dae8fc;strokeColor=#6c8ebf;shadow=0;align=center;" vertex="1" parent="1">
                    <mxGeometry x="220" y="219" width="70" height="20" as="geometry"/>
                </mxCell>
                <mxCell id="10" value="&lt;font color=&quot;#000000&quot;&gt;Button&lt;/font&gt;" style="shape=process;whiteSpace=wrap;html=1;backgroundOutline=1;shadow=0;sketch=1;hachureGap=4;jiggle=2;curveFitting=1;strokeColor=#3A5431;fontFamily=Comic Sans MS;fontSize=14;fontColor=#ffffff;fillColor=#6d8764;" vertex="1" parent="1">
                    <mxGeometry x="94" y="253" width="86" height="30" as="geometry"/>
                </mxCell>
                <mxCell id="11" value="&lt;font color=&quot;#000000&quot;&gt;Button&lt;/font&gt;" style="shape=process;whiteSpace=wrap;html=1;backgroundOutline=1;shadow=0;sketch=1;hachureGap=4;jiggle=2;curveFitting=1;strokeColor=#3A5431;fontFamily=Comic Sans MS;fontSize=14;fontColor=#ffffff;fillColor=#6d8764;" vertex="1" parent="1">
                    <mxGeometry x="190" y="253" width="86" height="30" as="geometry"/>
                </mxCell>
            </root>
        </mxGraphModel>
    </diagram>
</mxfile>